<svg id="visual" viewBox="0 0 1640 1200" width="1640" height="1200" xmlns="http://www.w3.org/2000/svg" xmlns:xlink="http://www.w3.org/1999/xlink" version="1.1"><rect x="0" y="0" width="1640" height="1200" fill="#e5dfd9"></rect><defs><linearGradient id="grad1_0" x1="26.8%" y1="0%" x2="100%" y2="100%"><stop offset="22.666666666666668%" stop-color="#f5c8c8" stop-opacity="1"></stop><stop offset="77.33333333333333%" stop-color="#f5c8c8" stop-opacity="1"></stop></linearGradient></defs><defs><linearGradient id="grad1_1" x1="26.8%" y1="0%" x2="100%" y2="100%"><stop offset="22.666666666666668%" stop-color="#f5c8c8" stop-opacity="1"></stop><stop offset="77.33333333333333%" stop-color="#edd4cb" stop-opacity="1"></stop></linearGradient></defs><defs><linearGradient id="grad1_2" x1="26.8%" y1="0%" x2="100%" y2="100%"><stop offset="22.666666666666668%" stop-color="#e5dfd9" stop-opacity="1"></stop><stop offset="77.33333333333333%" stop-color="#edd4cb" stop-opacity="1"></stop></linearGradient></defs><defs><linearGradient id="grad2_0" x1="0%" y1="0%" x2="73.2%" y2="100%"><stop offset="22.666666666666668%" stop-color="#f5c8c8" stop-opacity="1"></stop><stop offset="77.33333333333333%" stop-color="#f5c8c8" stop-opacity="1"></stop></linearGradient></defs><defs><linearGradient id="grad2_1" x1="0%" y1="0%" x2="73.2%" y2="100%"><stop offset="22.666666666666668%" stop-color="#edd4cb" stop-opacity="1"></stop><stop offset="77.33333333333333%" stop-color="#f5c8c8" stop-opacity="1"></stop></linearGradient></defs><defs><linearGradient id="grad2_2" x1="0%" y1="0%" x2="73.2%" y2="100%"><stop offset="22.666666666666668%" stop-color="#edd4cb" stop-opacity="1"></stop><stop offset="77.33333333333333%" stop-color="#e5dfd9" stop-opacity="1"></stop></linearGradient></defs><g transform="translate(1640, 0)"><path d="M0 711.2C-83.3 679.6 -166.6 647.9 -256.4 619C-346.2 590.1 -442.4 564.1 -502.9 502.9C-563.5 441.7 -588.4 345.3 -617.2 255.6C-645.9 165.9 -678.6 83 -711.2 0L0 0Z" fill="#e8dad1"></path><path d="M0 474.2C-55.5 453 -111.1 431.9 -170.9 412.7C-230.8 393.4 -294.9 376.1 -335.3 335.3C-375.7 294.5 -392.2 230.2 -411.4 170.4C-430.6 110.6 -452.4 55.3 -474.2 0L0 0Z" fill="#f1cec8"></path><path d="M0 237.1C-27.8 226.5 -55.5 216 -85.5 206.3C-115.4 196.7 -147.5 188 -167.6 167.6C-187.8 147.2 -196.1 115.1 -205.7 85.2C-215.3 55.3 -226.2 27.7 -237.1 0L0 0Z" fill="#f5c8c8"></path></g><g transform="translate(0, 1200)"><path d="M0 -711.2C85.4 -671.2 170.8 -631.2 243.8 -588.5C316.8 -545.9 377.4 -500.6 451.1 -451.1C524.8 -401.7 611.6 -348.1 657.1 -272.2C702.6 -196.3 706.9 -98.1 711.2 0L0 0Z" fill="#e8dad1"></path><path d="M0 -474.2C56.9 -447.5 113.8 -420.8 162.5 -392.3C211.2 -363.9 251.6 -333.7 300.8 -300.8C349.9 -267.8 407.7 -232 438.1 -181.5C468.4 -130.9 471.3 -65.4 474.2 0L0 0Z" fill="#f1cec8"></path><path d="M0 -237.1C28.5 -223.7 56.9 -210.4 81.3 -196.2C105.6 -182 125.8 -166.9 150.4 -150.4C174.9 -133.9 203.9 -116 219 -90.7C234.2 -65.4 235.6 -32.7 237.1 0L0 0Z" fill="#f5c8c8"></path></g></svg>