<svg id="visual" viewBox="0 0 1920 1080" width="1920" height="1080" xmlns="http://www.w3.org/2000/svg" xmlns:xlink="http://www.w3.org/1999/xlink" version="1.1"><rect x="0" y="0" width="1920" height="1080" fill="#e5dfd9"></rect><defs><linearGradient id="grad1_0" x1="43.8%" y1="0%" x2="100%" y2="100%"><stop offset="14.444444444444446%" stop-color="#f5c8c8" stop-opacity="1"></stop><stop offset="85.55555555555554%" stop-color="#f5c8c8" stop-opacity="1"></stop></linearGradient></defs><defs><linearGradient id="grad1_1" x1="43.8%" y1="0%" x2="100%" y2="100%"><stop offset="14.444444444444446%" stop-color="#f5c8c8" stop-opacity="1"></stop><stop offset="85.55555555555554%" stop-color="#edd4cb" stop-opacity="1"></stop></linearGradient></defs><defs><linearGradient id="grad1_2" x1="43.8%" y1="0%" x2="100%" y2="100%"><stop offset="14.444444444444446%" stop-color="#e5dfd9" stop-opacity="1"></stop><stop offset="85.55555555555554%" stop-color="#edd4cb" stop-opacity="1"></stop></linearGradient></defs><defs><linearGradient id="grad2_0" x1="0%" y1="0%" x2="56.3%" y2="100%"><stop offset="14.444444444444446%" stop-color="#f5c8c8" stop-opacity="1"></stop><stop offset="85.55555555555554%" stop-color="#f5c8c8" stop-opacity="1"></stop></linearGradient></defs><defs><linearGradient id="grad2_1" x1="0%" y1="0%" x2="56.3%" y2="100%"><stop offset="14.444444444444446%" stop-color="#edd4cb" stop-opacity="1"></stop><stop offset="85.55555555555554%" stop-color="#f5c8c8" stop-opacity="1"></stop></linearGradient></defs><defs><linearGradient id="grad2_2" x1="0%" y1="0%" x2="56.3%" y2="100%"><stop offset="14.444444444444446%" stop-color="#edd4cb" stop-opacity="1"></stop><stop offset="85.55555555555554%" stop-color="#e5dfd9" stop-opacity="1"></stop></linearGradient></defs><g transform="translate(1920, 0)"><path d="M0 694C-75.1 691.2 -150.2 688.4 -215.7 663.8C-281.2 639.2 -337 592.8 -406.2 559C-475.4 525.3 -558 504.1 -627 455.5C-696 406.9 -751.5 330.8 -770.4 250.3C-789.3 169.8 -771.6 84.9 -754 0L0 0Z" fill="#e8dad1"></path><path d="M0 462.7C-50.1 460.8 -100.2 459 -143.8 442.6C-187.4 426.2 -224.6 395.2 -270.8 372.7C-316.9 350.2 -372 336.1 -418 303.7C-464 271.3 -501 220.5 -513.6 166.9C-526.2 113.2 -514.4 56.6 -502.7 0L0 0Z" fill="#f1cec8"></path><path d="M0 231.3C-25 230.4 -50.1 229.5 -71.9 221.3C-93.7 213.1 -112.3 197.6 -135.4 186.3C-158.5 175.1 -186 168 -209 151.8C-232 135.6 -250.5 110.3 -256.8 83.4C-263.1 56.6 -257.2 28.3 -251.3 0L0 0Z" fill="#f5c8c8"></path></g><g transform="translate(0, 1080)"><path d="M0 -764C71.4 -733.9 142.8 -703.8 225 -692.4C307.2 -680.9 400.2 -688.1 476.1 -655.3C552 -622.5 610.8 -549.8 650.4 -472.6C690.1 -395.4 710.5 -313.7 720.9 -234.2C731.3 -154.7 731.6 -77.4 732 0L0 0Z" fill="#e8dad1"></path><path d="M0 -509.3C47.6 -489.3 95.2 -469.2 150 -461.6C204.8 -453.9 266.8 -458.7 317.4 -436.9C368 -415 407.2 -366.5 433.6 -315.1C460 -263.6 473.7 -209.2 480.6 -156.2C487.5 -103.2 487.8 -51.6 488 0L0 0Z" fill="#f1cec8"></path><path d="M0 -254.7C23.8 -244.6 47.6 -234.6 75 -230.8C102.4 -227 133.4 -229.4 158.7 -218.4C184 -207.5 203.6 -183.3 216.8 -157.5C230 -131.8 236.8 -104.6 240.3 -78.1C243.8 -51.6 243.9 -25.8 244 0L0 0Z" fill="#f5c8c8"></path></g></svg>