<svg id="visual" viewBox="0 0 1323 1652" width="1323" height="1652" xmlns="http://www.w3.org/2000/svg" xmlns:xlink="http://www.w3.org/1999/xlink" version="1.1"><rect x="0" y="0" width="1323" height="1652" fill="#e5dfd9"></rect><defs><linearGradient id="grad1_0" x1="0%" y1="0%" x2="100%" y2="100%"><stop offset="30%" stop-color="#f5c8c8" stop-opacity="1"></stop><stop offset="70%" stop-color="#f5c8c8" stop-opacity="1"></stop></linearGradient></defs><defs><linearGradient id="grad1_1" x1="0%" y1="0%" x2="100%" y2="100%"><stop offset="30%" stop-color="#f5c8c8" stop-opacity="1"></stop><stop offset="70%" stop-color="#edd4cb" stop-opacity="1"></stop></linearGradient></defs><defs><linearGradient id="grad1_2" x1="0%" y1="0%" x2="100%" y2="100%"><stop offset="30%" stop-color="#e5dfd9" stop-opacity="1"></stop><stop offset="70%" stop-color="#edd4cb" stop-opacity="1"></stop></linearGradient></defs><defs><linearGradient id="grad2_0" x1="0%" y1="0%" x2="100%" y2="100%"><stop offset="30%" stop-color="#f5c8c8" stop-opacity="1"></stop><stop offset="70%" stop-color="#f5c8c8" stop-opacity="1"></stop></linearGradient></defs><defs><linearGradient id="grad2_1" x1="0%" y1="0%" x2="100%" y2="100%"><stop offset="30%" stop-color="#edd4cb" stop-opacity="1"></stop><stop offset="70%" stop-color="#f5c8c8" stop-opacity="1"></stop></linearGradient></defs><defs><linearGradient id="grad2_2" x1="0%" y1="0%" x2="100%" y2="100%"><stop offset="30%" stop-color="#edd4cb" stop-opacity="1"></stop><stop offset="70%" stop-color="#e5dfd9" stop-opacity="1"></stop></linearGradient></defs><g transform="translate(1323, 0)"><path d="M0 824C-79.4 800.8 -158.7 777.5 -246.9 759.9C-335.1 742.2 -432.1 730.2 -493.7 679.6C-555.4 629 -581.8 539.8 -648 470.8C-714.3 401.8 -820.5 353.1 -855.5 278C-890.5 202.9 -854.2 101.4 -818 0L0 0Z" fill="#e8dad1"></path><path d="M0 549.3C-52.9 533.8 -105.8 518.4 -164.6 506.6C-223.4 494.8 -288 486.8 -329.2 453C-370.3 419.3 -387.8 359.9 -432 313.9C-476.2 267.9 -547 235.4 -570.3 185.3C-593.6 135.2 -569.5 67.6 -545.3 0L0 0Z" fill="#f1cec8"></path><path d="M0 274.7C-26.5 266.9 -52.9 259.2 -82.3 253.3C-111.7 247.4 -144 243.4 -164.6 226.5C-185.1 209.7 -193.9 179.9 -216 156.9C-238.1 133.9 -273.5 117.7 -285.2 92.7C-296.8 67.6 -284.7 33.8 -272.7 0L0 0Z" fill="#f5c8c8"></path></g><g transform="translate(0, 1652)"><path d="M0 -896C82 -851.8 164.1 -807.6 253.7 -780.8C343.4 -754.1 440.6 -744.8 501.4 -690.1C562.1 -635.4 586.4 -535.4 631.8 -459.1C677.3 -382.7 744.1 -330 792.2 -257.4C840.4 -184.8 869.9 -92.4 899.5 0L0 0Z" fill="#e8dad1"></path><path d="M0 -597.3C54.7 -567.9 109.4 -538.4 169.1 -520.5C228.9 -502.7 293.8 -496.5 334.3 -460.1C374.8 -423.6 390.9 -356.9 421.2 -306C451.6 -255.1 496.1 -220 528.2 -171.6C560.3 -123.2 580 -61.6 599.7 0L0 0Z" fill="#f1cec8"></path><path d="M0 -298.7C27.3 -283.9 54.7 -269.2 84.6 -260.3C114.5 -251.4 146.9 -248.3 167.1 -230C187.4 -211.8 195.5 -178.5 210.6 -153C225.8 -127.6 248 -110 264.1 -85.8C280.1 -61.6 290 -30.8 299.8 0L0 0Z" fill="#f5c8c8"></path></g></svg>