<svg id="visual" viewBox="0 0 1920 1080" width="1920" height="1080" xmlns="http://www.w3.org/2000/svg" xmlns:xlink="http://www.w3.org/1999/xlink" version="1.1"><rect x="0" y="0" width="1920" height="1080" fill="#e5dfd9"></rect><defs><linearGradient id="grad1_0" x1="43.8%" y1="0%" x2="100%" y2="100%"><stop offset="14.444444444444446%" stop-color="#f5c8c8" stop-opacity="1"></stop><stop offset="85.55555555555554%" stop-color="#f5c8c8" stop-opacity="1"></stop></linearGradient></defs><defs><linearGradient id="grad1_1" x1="43.8%" y1="0%" x2="100%" y2="100%"><stop offset="14.444444444444446%" stop-color="#f5c8c8" stop-opacity="1"></stop><stop offset="85.55555555555554%" stop-color="#edd4cb" stop-opacity="1"></stop></linearGradient></defs><defs><linearGradient id="grad1_2" x1="43.8%" y1="0%" x2="100%" y2="100%"><stop offset="14.444444444444446%" stop-color="#e5dfd9" stop-opacity="1"></stop><stop offset="85.55555555555554%" stop-color="#edd4cb" stop-opacity="1"></stop></linearGradient></defs><defs><linearGradient id="grad2_0" x1="0%" y1="0%" x2="56.3%" y2="100%"><stop offset="14.444444444444446%" stop-color="#f5c8c8" stop-opacity="1"></stop><stop offset="85.55555555555554%" stop-color="#f5c8c8" stop-opacity="1"></stop></linearGradient></defs><defs><linearGradient id="grad2_1" x1="0%" y1="0%" x2="56.3%" y2="100%"><stop offset="14.444444444444446%" stop-color="#edd4cb" stop-opacity="1"></stop><stop offset="85.55555555555554%" stop-color="#f5c8c8" stop-opacity="1"></stop></linearGradient></defs><defs><linearGradient id="grad2_2" x1="0%" y1="0%" x2="56.3%" y2="100%"><stop offset="14.444444444444446%" stop-color="#edd4cb" stop-opacity="1"></stop><stop offset="85.55555555555554%" stop-color="#e5dfd9" stop-opacity="1"></stop></linearGradient></defs><g transform="translate(1920, 0)"><path d="M0 578C-85.4 584.1 -170.8 590.3 -227.3 548.8C-283.8 507.3 -311.4 418.2 -357.8 357.8C-404.1 297.4 -469.2 265.7 -509.1 210.9C-548.9 156 -563.4 78 -578 0L0 0Z" fill="#e8dad1"></path><path d="M0 385.3C-56.9 389.4 -113.9 393.5 -151.5 365.9C-189.2 338.2 -207.6 278.8 -238.5 238.5C-269.4 198.3 -312.8 177.1 -339.4 140.6C-365.9 104 -375.6 52 -385.3 0L0 0Z" fill="#f1cec8"></path><path d="M0 192.7C-28.5 194.7 -56.9 196.8 -75.8 182.9C-94.6 169.1 -103.8 139.4 -119.3 119.3C-134.7 99.1 -156.4 88.6 -169.7 70.3C-183 52 -187.8 26 -192.7 0L0 0Z" fill="#f5c8c8"></path></g><g transform="translate(0, 1080)"><path d="M0 -504C63.1 -491.8 126.1 -479.6 192.9 -465.6C259.6 -451.7 330 -436 397.4 -397.4C464.8 -358.8 529.2 -297.4 548.8 -227.3C568.4 -157.3 543.2 -78.6 518 0L0 0Z" fill="#e8dad1"></path><path d="M0 -336C42 -327.9 84.1 -319.7 128.6 -310.4C173.1 -301.1 220 -290.6 264.9 -264.9C309.9 -239.2 352.8 -198.2 365.9 -151.5C378.9 -104.8 362.1 -52.4 345.3 0L0 0Z" fill="#f1cec8"></path><path d="M0 -168C21 -163.9 42 -159.9 64.3 -155.2C86.5 -150.6 110 -145.3 132.5 -132.5C154.9 -119.6 176.4 -99.1 182.9 -75.8C189.5 -52.4 181.1 -26.2 172.7 0L0 0Z" fill="#f5c8c8"></path></g></svg>