<svg id="visual" viewBox="0 0 900 1800" width="900" height="1800" xmlns="http://www.w3.org/2000/svg" xmlns:xlink="http://www.w3.org/1999/xlink" version="1.1"><rect x="0" y="0" width="900" height="1800" fill="#e5dfd9"></rect><defs><linearGradient id="grad1_0" x1="0%" y1="0%" x2="100%" y2="100%"><stop offset="30%" stop-color="#f5c8c8" stop-opacity="1"></stop><stop offset="70%" stop-color="#f5c8c8" stop-opacity="1"></stop></linearGradient></defs><defs><linearGradient id="grad1_1" x1="0%" y1="0%" x2="100%" y2="100%"><stop offset="30%" stop-color="#f5c8c8" stop-opacity="1"></stop><stop offset="70%" stop-color="#f0d0c9" stop-opacity="1"></stop></linearGradient></defs><defs><linearGradient id="grad1_2" x1="0%" y1="0%" x2="100%" y2="100%"><stop offset="30%" stop-color="#ead8cf" stop-opacity="1"></stop><stop offset="70%" stop-color="#f0d0c9" stop-opacity="1"></stop></linearGradient></defs><defs><linearGradient id="grad1_3" x1="0%" y1="0%" x2="100%" y2="100%"><stop offset="30%" stop-color="#ead8cf" stop-opacity="1"></stop><stop offset="70%" stop-color="#e5dfd9" stop-opacity="1"></stop></linearGradient></defs><defs><linearGradient id="grad2_0" x1="0%" y1="0%" x2="100%" y2="100%"><stop offset="30%" stop-color="#f5c8c8" stop-opacity="1"></stop><stop offset="70%" stop-color="#f5c8c8" stop-opacity="1"></stop></linearGradient></defs><defs><linearGradient id="grad2_1" x1="0%" y1="0%" x2="100%" y2="100%"><stop offset="30%" stop-color="#f0d0c9" stop-opacity="1"></stop><stop offset="70%" stop-color="#f5c8c8" stop-opacity="1"></stop></linearGradient></defs><defs><linearGradient id="grad2_2" x1="0%" y1="0%" x2="100%" y2="100%"><stop offset="30%" stop-color="#f0d0c9" stop-opacity="1"></stop><stop offset="70%" stop-color="#ead8cf" stop-opacity="1"></stop></linearGradient></defs><defs><linearGradient id="grad2_3" x1="0%" y1="0%" x2="100%" y2="100%"><stop offset="30%" stop-color="#e5dfd9" stop-opacity="1"></stop><stop offset="70%" stop-color="#ead8cf" stop-opacity="1"></stop></linearGradient></defs><g transform="translate(900, 0)"><path d="M0 746C-71.2 726.9 -142.3 707.8 -225.9 695.2C-309.5 682.6 -405.4 676.5 -449.7 618.9C-493.9 561.3 -486.4 452.2 -527.5 383.2C-568.6 314.2 -658.2 285.3 -701.9 228.1C-745.6 170.9 -743.3 85.4 -741 0L0 0Z" fill="#e7dcd3"></path><path d="M0 559.5C-53.4 545.2 -106.7 530.9 -169.4 521.4C-232.1 512 -304.1 507.4 -337.2 464.2C-370.4 421 -364.8 339.2 -395.6 287.4C-426.4 235.7 -493.6 213.9 -526.4 171C-559.2 128.1 -557.5 64.1 -555.7 0L0 0Z" fill="#edd4cb"></path><path d="M0 373C-35.6 363.5 -71.2 353.9 -112.9 347.6C-154.7 341.3 -202.7 338.2 -224.8 309.4C-246.9 280.7 -243.2 226.1 -263.7 191.6C-284.3 157.1 -329.1 142.6 -350.9 114C-372.8 85.4 -371.6 42.7 -370.5 0L0 0Z" fill="#f3ccc8"></path><path d="M0 186.5C-17.8 181.7 -35.6 177 -56.5 173.8C-77.4 170.7 -101.4 169.1 -112.4 154.7C-123.5 140.3 -121.6 113.1 -131.9 95.8C-142.1 78.6 -164.5 71.3 -175.5 57C-186.4 42.7 -185.8 21.4 -185.2 0L0 0Z" fill="#f5c8c8"></path></g><g transform="translate(0, 1800)"><path d="M0 -744C69.5 -706.4 139 -668.8 208 -640.1C276.9 -611.4 345.2 -591.6 402 -553.4C458.9 -515.2 504.2 -458.6 555 -403.2C605.8 -347.9 662.2 -293.8 698.1 -226.8C734 -159.8 749.5 -79.9 765 0L0 0Z" fill="#e7dcd3"></path><path d="M0 -558C52.1 -529.8 104.3 -501.6 156 -480C207.7 -458.5 258.9 -443.7 301.5 -415C344.1 -386.4 378.1 -343.9 416.2 -302.4C454.4 -260.9 496.6 -220.4 523.6 -170.1C550.5 -119.9 562.1 -59.9 573.8 0L0 0Z" fill="#edd4cb"></path><path d="M0 -372C34.8 -353.2 69.5 -334.4 104 -320C138.4 -305.7 172.6 -295.8 201 -276.7C229.4 -257.6 252.1 -229.3 277.5 -201.6C302.9 -173.9 331.1 -146.9 349 -113.4C367 -79.9 374.7 -40 382.5 0L0 0Z" fill="#f3ccc8"></path><path d="M0 -186C17.4 -176.6 34.8 -167.2 52 -160C69.2 -152.8 86.3 -147.9 100.5 -138.3C114.7 -128.8 126 -114.6 138.7 -100.8C151.5 -87 165.5 -73.5 174.5 -56.7C183.5 -40 187.4 -20 191.3 0L0 0Z" fill="#f5c8c8"></path></g></svg>